<svg xmlns="http://www.w3.org/2000/svg" width="20" height="20" viewBox="0 0 20 20"><defs><style>.cls-1,.cls-3{fill:#636ef5;}.cls-1,.cls-2,.cls-3{stroke:#282828;}.cls-1,.cls-2,.cls-3,.cls-4{stroke-miterlimit:10;}.cls-1{opacity:0.3;}.cls-2{fill:none;}.cls-4{font-size:10px;fill:#fff;stroke:#fff;stroke-width:0.25px;font-family:MicrosoftYaHei, MicrosoftYaHei;}</style></defs><title>功能面批量复制</title><g id="图层_2" data-name="图层 2"><g id="功能面批量复制"><path class="cls-1" d="M8.59,19.5H5.49a1,1,0,0,1-1-1v-13a1,1,0,0,1,1-1h13a1,1,0,0,1,1,1V18A1.5,1.5,0,0,1,18,19.5H8.49"/><path class="cls-2" d="M8.59,19.5H5.49a1,1,0,0,1-1-1v-13a1,1,0,0,1,1-1h13a1,1,0,0,1,1,1V18A1.5,1.5,0,0,1,18,19.5H8.49"/><path class="cls-3" d="M4.59,15.5H1.5a1,1,0,0,1-1-1V1.5a1,1,0,0,1,1-1h13a1,1,0,0,1,1,1v13a1,1,0,0,1-1,1h-10"/><text class="cls-4" transform="translate(3 11.7)">面</text></g></g></svg>