<svg xmlns="http://www.w3.org/2000/svg" width="19.67" height="20" viewBox="0 0 19.67 20"><defs><style>.cls-1{fill:#00a4ff;}.cls-2,.cls-4{fill:none;}.cls-2{stroke:#fff;stroke-dasharray:2 1;}.cls-2,.cls-4,.cls-5{stroke-miterlimit:10;}.cls-3{font-size:12px;fill:#fff;font-family:MicrosoftYaHei, MicrosoftYaHei;}.cls-4,.cls-5{stroke:#282828;}.cls-5{fill:#ffb746;}</style></defs><title>停车位面自由绘制</title><g id="图层_2" data-name="图层 2"><g id="停车位面自由绘制"><path class="cls-1" d="M5.59,19.5H1.49a1,1,0,0,1-1-1v-17a1,1,0,0,1,1-1h14a1,1,0,0,1,1,1v18"/><line class="cls-2" x1="0.5" y1="15.73" x2="16.5" y2="15.73"/><text class="cls-3" transform="translate(5.32 12.44)">P</text><path class="cls-4" d="M8,19.5H1.49a1,1,0,0,1-1-1v-17a1,1,0,0,1,1-1h14a1,1,0,0,1,1,1v18"/><polygon class="cls-5" points="18.98 4.78 11.48 17.77 8.34 19.22 8.02 15.77 15.52 2.78 18.98 4.78"/><line class="cls-4" x1="13.77" y1="5.81" x2="17.23" y2="7.81"/></g></g></svg>